:SAMPLES-PER-SECOND 30
:FULLY-SPECIFIED
:DEGREES
693
root  -69.9929 40.061 -15.6733 -17.1381 -88.3346 11.0076
RightUpLeg  -2.31442 -6.8207 1.45643
RightLeg  16.5181 3.91898 1.11315
RightFoot  -6.84943 0.182003 -5.80625
RightToes  -8.14909e-010 0 -3.6325e-017
Spine  5.29185 0.865754 10.9384
Spine1  4.03813 1.16492 1.12544
HEad  -10.4273 22.1285 -7.78351
LeftShoulder1  0.0231931 3.42919 -24.674
LeftArm  2.09247 -22.4605 -44.212
LeftForeArm  41.8363 -32.1065 -4.72964
LeftHand  -0.00213382 5.99673 4.78564
RightShoulder  -0.468489 -4.89658 26.7681
RightArm  21.5108 3.21093 44.5635
RightForeArm  12.4988 17.0944 5.47117
RightHand  0.0924011 2.04212 1.28725
LeftUpLeg  -13.8658 4.72199 0.870715
LeftLeg  18.171 -1.33312 -0.217378
LeftFoot  1.45938 0.566268 -5.23017
LeftToes  1.648e-009 -9.21574e-011 2.55256e-011
694
root  -70.9124 40.1728 -15.7591 -22.6713 -87.8787 16.0732
RightUpLeg  0.560926 -6.47828 1.35559
RightLeg  14.9895 3.1302 0.448056
RightFoot  -7.86472 0.116957 -5.61326
RightToes  -8.14909e-010 0 -3.6325e-017
Spine  4.06463 0.984136 9.76392
Spine1  5.40574 1.178 0.9304
HEad  -8.81288 24 -7.26665
LeftShoulder1  0.0629176 3.30219 -24.9797
LeftArm  6.90015 -21.1216 -42.7668
LeftForeArm  39.947 -30.4939 -4.45492
LeftHand  0.00498902 6.12852 5.11877
RightShoulder  -0.488574 -4.95718 26.7785
RightArm  20.3773 4.32561 45.1648
RightForeArm  12.5171 17.1516 5.34098
RightHand  0.0463852 2.59911 0.474403
LeftUpLeg  -11.2533 6.3751 -0.18405
LeftLeg  9.76288 1.1245 -0.0472197
LeftFoot  5.79293 -0.008154 -0.330025
LeftToes  1.648e-009 -9.21574e-011 2.55256e-011
695
root  -71.8382 40.1697 -15.7925 -15.7822 -86.8087 8.56506
RightUpLeg  2.96903 -6.71042 1.19258
RightLeg  14.8806 2.20861 0.491587
RightFoot  -9.43774 0.0273044 -5.37549
RightToes  -8.14909e-010 0 -3.6325e-017
Spine  3.07998 0.61592 9.52715
Spine1  6.17593 1.03442 -0.446781
HEad  -6.53076 26.0382 -5.40375
LeftShoulder1  0.0343763 3.39379 -24.6101
LeftArm  11.8119 -19.0861 -42.1173
LeftForeArm  38.8409 -28.7723 -4.13002
LeftHand  0.00714357 6.26543 4.70835
RightShoulder  -0.559575 -5.14194 27.3437
RightArm  19.95 4.99038 45.3391
RightForeArm  14.388 17.3696 5.14176
RightHand  0.126408 1.83776 1.87708
LeftUpLeg  -9.8021 7.83772 -0.933178
LeftLeg  8.27057 6.3796 -0.197879
LeftFoot  8.12707 -1.18457 6.78718
LeftToes  1.648e-009 -9.21574e-011 2.55256e-011
696
root  -72.7189 40.0273 -15.8795 -9.77823 -84.1533 2.38403
RightUpLeg  4.0516 -7.83188 1.02875
RightLeg  16.5501 0.778572 0.529915
RightFoot  -11.8949 -0.104713 -4.6909
RightToes  -8.14909e-010 0 -3.6325e-017
Spine  2.21585 0.0282407 7.08057
Spine1  6.31915 0.0546518 0.717308
HEad  -4.62551 27.6914 -3.46007
LeftShoulder1  -0.0405867 3.63005 -24.2421
LeftArm  15.574 -16.9716 -42.5727
LeftForeArm  35.8296 -26.017 -3.63803
LeftHand  0.0196721 6.51236 5.10771
RightShoulder  -0.683289 -5.46847 28.1164
RightArm  18.7743 5.17764 45.0734
RightForeArm  15.0562 17.3129 5.01608
RightHand  0.135503 1.56341 2.20067
LeftUpLeg  -9.90627 8.30662 -1.89835
LeftLeg  11.0607 7.48538 0.849774
LeftFoot  5.64143 -1.62403 10.5552
LeftToes  1.648e-009 -9.21574e-011 2.55256e-011
697
root  -73.5923 39.8447 -15.9969 -11.5997 -81.3969 2.97461
RightUpLeg  5.88282 -9.9697 0.343523
RightLeg  19.1101 0.26077 0.202281
RightFoot  -14.1747 -0.190998 -4.00797
RightToes  -8.14909e-010 0 -3.6325e-017
Spine  3.5045 -0.00719398 3.05438
Spine1  5.43885 -0.693424 3.96924
HEad  -3.00386 29.6866 -2.95511
LeftShoulder1  -0.213343 4.16136 -26.3871
LeftArm  19.2795 -15.7097 -41.9372
LeftForeArm  32.1124 -23.1247 -3.65054
LeftHand  0.0442966 7.31866 4.63605
RightShoulder  -0.680838 -5.50012 27.4259
RightArm  16.6855 3.61882 44.7749
RightForeArm  13.7163 17.5288 4.76603
RightHand  0.052783 2.50263 0.568117
LeftUpLeg  -9.48194 7.20161 -2.30217
LeftLeg  15.2981 5.06745 1.72071
LeftFoot  3.06203 -1.14783 8.87204
LeftToes  1.648e-009 -9.21574e-011 2.55256e-011
698
root  -74.3946 39.6607 -16.1602 -17.2056 -78.6892 8.224
RightUpLeg  4.9682 -11.8417 -1.05183
RightLeg  24.9596 -0.212379 -0.362207
RightFoot  -15.8528 -0.17441 -1.68523
RightToes  -8.14909e-010 0 -3.6325e-017
Spine  3.73655 0.216532 0.590403
Spine1  5.41237 -0.411191 3.88506
HEad  -2.15972 30.3629 -1.1149
LeftShoulder1  -0.203988 4.11088 -27.4827
LeftArm  15.9975 -14.4916 -41.3166
LeftForeArm  34.0494 -19.4584 -5.22181
LeftHand  0.0677409 7.98741 4.66189
RightShoulder  -0.709093 -5.5408 28.1426
RightArm  14.0239 2.23197 44.7241
RightForeArm  15.5982 16.5428 4.64621
RightHand  0.125321 2.5393 1.68181
LeftUpLeg  -9.49917 5.96463 -3.31844
LeftLeg  18.5542 3.51008 1.6702
LeftFoot  0.810861 -0.777621 7.29191
LeftToes  1.648e-009 -9.21574e-011 2.55256e-011
699
root  -75.0921 39.6489 -16.2287 -19.5181 -76.7156 10.3842
RightUpLeg  3.2723 -13.8633 -2.76905
RightLeg  31.3135 0.78481 0.299231
RightFoot  -14.6332 -0.0380263 2.38182
RightToes  -8.14909e-010 0 -3.6325e-017
Spine  3.93413 0.692528 0.767955
Spine1  5.82246 0.572032 0.894375
HEad  -2.17946 31.6778 -0.902209
LeftShoulder1  -0.259196 4.24003 -28.8882
LeftArm  9.60889 -12.8041 -40.2193
LeftForeArm  38.122 -16.433 -6.97323
LeftHand  0.0538193 8.37304 3.68648
RightShoulder  -0.757779 -5.69361 27.9546
RightArm  12.1799 0.437941 45.6819
RightForeArm  14.7888 14.7832 4.86378
RightHand  -0.00902385 3.57039 -0.399977
LeftUpLeg  -8.4081 5.0525 -4.12217
LeftLeg  18.9349 3.03532 1.49138
LeftFoot  0.0101209 -0.809417 8.12059
LeftToes  1.648e-009 -9.21574e-011 2.55256e-011
700
root  -75.7306 39.6001 -16.3288 -21.263 -75.3192 12.8256
RightUpLeg  -0.976864 -14.9608 -4.49673
RightLeg  40.036 2.63145 2.10474
RightFoot  -11.1713 -0.102093 7.83834
RightToes  -8.14909e-010 0 -3.6325e-017
Spine  3.81062 1.46003 0.019707
Spine1  6.02893 1.40968 -0.112706
HEad  -3.94151 36.3133 -4.09223
LeftShoulder1  -0.513643 4.85863 -31.6981
LeftArm  6.27906 -10.8757 -37.9438
LeftForeArm  37.8056 -14.3314 -8.04656
LeftHand  0.0539717 9.15703 3.00175
RightShoulder  -0.607172 -5.34677 26.1698
RightArm  11.2224 -0.999719 47.5496
RightForeArm  14.4768 12.7411 5.2704
RightHand  -0.032621 2.97734 -0.593428
LeftUpLeg  -8.49152 4.34567 -4.86962
LeftLeg  19.7098 2.59369 1.36196
LeftFoot  -1.23014 -0.68677 7.83578
LeftToes  1.648e-009 -9.21574e-011 2.55256e-011
